{"title":"The Bourne Legacy 2012 DVD9rip English Klam","uid":7950311,"size":2224054547,"categoryP":"video","categoryS":"movies","magnet":"?xt=urn:btih:62062dea1f4922e584a0e661ee91ab6b052c143e&amp;dn=The+Bourne+Legacy+2012+DVD9rip+English+Klam&amp;tr=udp%3A%2F%2Ftracker.openbittorrent.com%3A80&amp;tr=udp%3A%2F%2Fopen.demonii.com%3A1337&amp;tr=udp%3A%2F%2Ftracker.coppersurfer.tk%3A6969&amp;tr=udp%3A%2F%2Fexodus.desync.com%3A6969","seeders":1,"leechers":0,"uploader":"Klambake","files":-1,"time":1356258112,"description":"With: Jeremy Renner, Rachel Weisz and Edward Norton\n\nJason Bourne heeft de vuile was van de illegale clandestiene programma's Treadstone en Blackbriar buiten gehangen. Om zich in te dekken besluit de top van de samenzwering om de overgebleven agenten permanent uit te schakelen. Onder hen bevindt zich Aaron Cross (Jeremy Renner), afkomstig van het Outcome programma, die samen met een hieraan verbonden wetenschapper (Rachel Weisz) op de vlucht slaat.\n\nAn expansion of the universe from Robert Ludlum's novels, centered on a new hero whose stakes have been triggered by the events of the previous three films. \n &lt;a href=&quot;\nhttp://www.imdb.com/title/tt1194173&quot; rel=&quot;nofollow&quot; target=&quot;_NEW&quot;&gt;\nhttp://www.imdb.com/title/tt1194173&lt;/a&gt;\t\n\n------------------------ Dutch Friends ------------------------\n---------------------------------------------------------------\n- Bezoek ook eens mijn vrienden op: &lt;a href=&quot; http://www.Film-Test.nl&quot; rel=&quot;nofollow&quot; target=&quot;_NEW&quot;&gt; http://www.Film-Test.nl&lt;/a&gt; --\n----- voor mijn Nederlandse Sync. ondertitels ---- en meer ----\n------- http://www.Film-Test.nl ---- Over Films en meer -------\n---------------------------------------------------------------\n\nGeneral:\n\nComplete name                    : The Bourne Legacy 2012The Bourne Legacy 2012.avi\nFormat                           : AVI\nFormat/Info                      : Audio Video Interleave\nFile size                        : 2.07 GiB\nDuration                         : 2h 9mn\nOverall bit rate                 : 2 292 Kbps\n\nVideo:\n\nFormat                           : MPEG-4 Visual\nFormat profile                   : Simple@L3\nFormat settings, BVOP            : No\nFormat settings, QPel            : No\nFormat settings, GMC             : No warppoints\nFormat settings, Matrix          : Default (H.263)\nCodec ID                         : XVID\nCodec ID/Hint                    : XviD\nDuration                         : 2h 9mn\nBit rate                         : 1 897 Kbps\nWidth                            : 720 pixels\nHeight                           : 304 pixels\nDisplay aspect ratio             : 2.35:1\nFrame rate                       : 25.000 fps\nColor space                      : YUV\nChroma subsampling               : 4:2:0\nBit depth                        : 8 bits\nScan type                        : Progressive\nCompression mode                 : Lossy\nBits/(Pixel*Frame)               : 0.347\nStream size                      : 1.71 GiB (83%)\nWriting library                  : XviD 1.1.2 (UTC 2006-11-01)\n\nAudio:\n\nFormat                           : AC-3\nFormat/Info                      : Audio Coding 3\nMode extension                   : CM (complete main)\nCodec ID                         : 2000\nDuration                         : 2h 9mn\nBit rate mode                    : Constant\nBit rate                         : 384 Kbps\nChannel(s)                       : 6 channels\nChannel positions                : Front: L C R, Side: L R, LFE\nSampling rate                    : 48.0 KHz\nBit depth                        : 16 bits\nCompression mode                 : Lossy\nStream size                      : 355 MiB (17%)\nAlignment                        : Aligned on interleaves\nInterleave, duration             : 32 ms (0.80 video frame)\nInterleave, preload duration     : 64 ms","torrent":{"xt":"urn:btih:62062dea1f4922e584a0e661ee91ab6b052c143e","amp;dn":"The+Bourne+Legacy+2012+DVD9rip+English+Klam","amp;tr":["udp%3A%2F%2Ftracker.openbittorrent.com%3A80","udp%3A%2F%2Fopen.demonii.com%3A1337","udp%3A%2F%2Ftracker.coppersurfer.tk%3A6969","udp%3A%2F%2Fexodus.desync.com%3A6969"],"infoHash":"62062dea1f4922e584a0e661ee91ab6b052c143e","infoHashBuffer":{"type":"Buffer","data":[98,6,45,234,31,73,34,229,132,160,230,97,238,145,171,107,5,44,20,62]},"announce":[],"urlList":[]}}